<?xml version="1.0" encoding="UTF-8"?>
<svg id="Layer_1" data-name="Layer 1" xmlns="http://www.w3.org/2000/svg" viewBox="0 0 493.23 193.04">
  <defs>
    <style>
      .cls-1 {
        fill: #ecfaeb;
      }

      .cls-2 {
        fill: #414042;
      }

      .cls-2, .cls-3, .cls-4, .cls-5 {
        font-size: 6px;
      }

      .cls-2, .cls-5, .cls-6 {
        font-family: ArialMT, Arial;
      }

      .cls-3, .cls-7, .cls-8, .cls-9, .cls-10 {
        font-family: Arial-BoldMT, Arial;
        font-weight: 700;
      }

      .cls-11 {
        fill: #231f20;
      }

      .cls-12, .cls-13 {
        stroke: #231f20;
      }

      .cls-12, .cls-13, .cls-14 {
        fill: none;
        stroke-miterlimit: 10;
      }

      .cls-15 {
        fill: #bcbec0;
      }

      .cls-16 {
        fill: #f1f2f2;
      }

      .cls-7 {
        letter-spacing: -.04em;
      }

      .cls-7, .cls-8 {
        font-size: 12px;
      }

      .cls-17 {
        fill: #d3ae4a;
      }

      .cls-18 {
        fill: #fff;
      }

      .cls-19 {
        fill: #77bf72;
      }

      .cls-13 {
        stroke-linecap: round;
      }

      .cls-9 {
        font-size: 8px;
      }

      .cls-20 {
        fill: #faf3e3;
      }

      .cls-21 {
        letter-spacing: -.07em;
      }

      .cls-22 {
        letter-spacing: -.02em;
      }

      .cls-23 {
        fill: #c94146;
      }

      .cls-14 {
        stroke: #bcbec0;
      }

      .cls-24 {
        fill: #4880d4;
      }
    </style>
  </defs>
  <g>
    <line class="cls-13" x1="254.83" y1="112.12" x2="240.82" y2="119.6"/>
    <polygon class="cls-11" points="240.51 118.08 238.93 120.62 241.92 120.71 240.51 118.08"/>
  </g>
  <g>
    <line class="cls-13" x1="254.83" y1="112.12" x2="267.16" y2="119.51"/>
    <polygon class="cls-11" points="266.01 120.57 269 120.62 267.55 118 266.01 120.57"/>
  </g>
  <g>
    <line class="cls-13" x1="293.03" y1="115.68" x2="293.03" y2="118.46"/>
    <polygon class="cls-11" points="291.54 118.02 293.03 120.62 294.53 118.02 291.54 118.02"/>
  </g>
  <text class="cls-9" transform="translate(2.88 9.73)"><tspan x="0" y="0">Data Extraction</tspan></text>
  <text class="cls-3" transform="translate(14.48 29.87)"><tspan class="cls-23" x="0" y="0">Identify</tspan><tspan x="21.33" y="0" xml:space="preserve"> fields of view</tspan></text>
  <text class="cls-3" transform="translate(14.48 80.45)"><tspan x="0" y="0">Extract single-cell </tspan><tspan class="cls-17" x="53.02" y="0">numerical</tspan><tspan x="81.37" y="0" xml:space="preserve"> features</tspan></text>
  <text class="cls-7" transform="translate(2.88 29.87)"><tspan x="0" y="0">A</tspan></text>
  <text class="cls-8" transform="translate(3.39 80.45)"><tspan x="0" y="0">B</tspan></text>
  <text class="cls-9" transform="translate(470.72 73.77)"><tspan x="0" y="0">B</tspan></text>
  <text class="cls-9" transform="translate(465.33 128.46)"><tspan x="0" y="0">C</tspan></text>
  <text class="cls-8" transform="translate(4.27 159.51)"><tspan x="0" y="0">C</tspan></text>
  <text class="cls-3" transform="translate(14.48 159.51)"><tspan x="0" y="0">Extract single-cell </tspan><tspan class="cls-24" x="53.02" y="0">categorical </tspan><tspan x="86.37" y="0">features</tspan></text>
  <line class="cls-12" x1="2.88" y1="13.65" x2="63.86" y2="13.65"/>
  <g>
    <g>
      <rect class="cls-18" x="3.38" y="40.3" width="44.28" height="20.2"/>
      <path class="cls-15" d="M47.16,40.8v19.2H3.88v-19.2h43.28M48.16,39.8H2.88v21.2h45.28v-21.2h0Z"/>
    </g>
    <text class="cls-5" transform="translate(12.17 48.37)"><tspan x="0" y="0">Load user </tspan><tspan x="-5.33" y="7.2">configurations</tspan></text>
  </g>
  <g>
    <g>
      <rect class="cls-1" x="224.01" y="36.73" width="37.03" height="27.33"/>
      <path class="cls-19" d="M260.54,37.23v26.33h-36.03v-26.33h36.03M261.54,36.23h-38.03v28.33h38.03v-28.33h0Z"/>
    </g>
    <text class="cls-5" transform="translate(228.02 44.8)"><tspan x="0" y="0">Display file </tspan><tspan x="1" y="7.2">groups for </tspan><tspan x="1" y="14.4">each FOV</tspan></text>
  </g>
  <g>
    <g>
      <rect class="cls-1" x="142.91" y="87.85" width="58.92" height="27.33"/>
      <path class="cls-19" d="M201.33,88.35v26.33h-57.92v-26.33h57.92M202.33,87.35h-59.92v28.33h59.92v-28.33h0Z"/>
    </g>
    <text class="cls-5" transform="translate(148.86 95.92)"><tspan x="0" y="0">Display optimized </tspan><tspan x="-2.17" y="7.2">shifts and fit results </tspan><tspan x="5.67" y="14.4">for each FOV</tspan></text>
  </g>
  <g>
    <g>
      <rect class="cls-1" x="347.04" y="87.85" width="50.38" height="27.33"/>
      <path class="cls-19" d="M396.91,88.35v26.33h-49.38v-26.33h49.38M397.91,87.35h-51.38v28.33h51.38v-28.33h0Z"/>
    </g>
    <text class="cls-5" transform="translate(362.39 95.92)"><tspan x="0" y="0">Display </tspan><tspan x="-12.01" y="7.2">extraction status </tspan><tspan x="-8" y="14.4">for each FOV</tspan></text>
  </g>
  <g>
    <g>
      <rect class="cls-1" x="406.58" y="87.85" width="31.15" height="27.33"/>
      <path class="cls-19" d="M437.24,88.35v26.33h-30.15v-26.33h30.15M438.24,87.35h-32.15v28.33h32.15v-28.33h0Z"/>
    </g>
    <text class="cls-5" transform="translate(411.49 95.92)"><tspan x="0" y="0">Preview </tspan><tspan x="-1.67" y="7.2">extracted </tspan><tspan x="-.17" y="14.4">features</tspan></text>
  </g>
  <g>
    <g>
      <rect class="cls-18" x="270.79" y="36.73" width="75.41" height="27.33"/>
      <path class="cls-15" d="M345.7,37.23v26.33h-74.41v-26.33h74.41M346.7,36.23h-76.41v28.33h76.41v-28.33h0Z"/>
    </g>
    <text class="cls-5" transform="translate(276.98 44.8)"><tspan x="0" y="0">Extract decay metadata </tspan><tspan x="-3" y="7.2">and check for consistency </tspan><tspan x="14.18" y="14.4">across FOVs</tspan></text>
  </g>
  <g>
    <g>
      <path class="cls-16" d="M265.5,5.44h85.99c1.45,0,2.63,1.18,2.63,2.63v22.08c0,1.45-1.18,2.63-2.63,2.63h-85.99c-1.45,0-2.63-1.18-2.63-2.63V8.07c0-1.45,1.18-2.63,2.63-2.63Z"/>
      <path class="cls-15" d="M351.49,5.94c1.17,0,2.13.95,2.13,2.13v22.08c0,1.17-.95,2.13-2.13,2.13h-85.99c-1.17,0-2.13-.95-2.13-2.13V8.07c0-1.17.95-2.13,2.13-2.13h85.99M351.49,4.94h-85.99c-1.73,0-3.13,1.4-3.13,3.13v22.08c0,1.73,1.4,3.13,3.13,3.13h85.99c1.73,0,3.13-1.4,3.13-3.13V8.07c0-1.73-1.4-3.13-3.13-3.13h0Z"/>
    </g>
    <text class="cls-2" transform="translate(276.98 13.51)"><tspan x="0" y="0">Supported decay types:</tspan><tspan x="-9.05" y="7.2">2D deca</tspan><tspan class="cls-21" x="13.29" y="7.2">y</tspan><tspan x="15.85" y="7.2">, 3D/4D deca</tspan><tspan class="cls-21" x="50.87" y="7.2">y</tspan><tspan x="53.42" y="7.2">, pre-fit </tspan><tspan x="-3.83" y="14.4">pixel-level lifetime features</tspan></text>
  </g>
  <g>
    <g>
      <rect class="cls-20" x="355.12" y="36.73" width="53.3" height="27.33" rx="7.4" ry="7.4"/>
      <path class="cls-17" d="M401.01,37.23c3.81,0,6.9,3.1,6.9,6.9v12.53c0,3.81-3.1,6.9-6.9,6.9h-38.5c-3.81,0-6.9-3.1-6.9-6.9v-12.53c0-3.81,3.1-6.9,6.9-6.9h38.5M401.01,36.23h-38.5c-4.36,0-7.9,3.54-7.9,7.9v12.53c0,4.36,3.54,7.9,7.9,7.9h38.5c4.36,0,7.9-3.54,7.9-7.9v-12.53c0-4.36-3.54-7.9-7.9-7.9h0Z"/>
    </g>
    <text class="cls-5" transform="translate(370.59 44.8)"><tspan x="0" y="0">Channel </tspan><tspan x="-7.33" y="7.2">assignment in </tspan><tspan x="-12.34" y="14.4">multichannel data</tspan></text>
  </g>
  <g>
    <g>
      <rect class="cls-18" x="3.38" y="87.85" width="32.85" height="27.33"/>
      <path class="cls-15" d="M35.73,88.35v26.33H3.88v-26.33h31.85M36.73,87.35H2.88v28.33h33.85v-28.33h0Z"/>
    </g>
    <text class="cls-5" transform="translate(7.29 95.92)"><tspan x="0" y="0">Load and </tspan><tspan x="4.68" y="7.2">check </tspan><tspan x="0" y="14.4">metadata</tspan></text>
  </g>
  <g>
    <g>
      <rect class="cls-18" x="45.41" y="87.85" width="46.29" height="27.33"/>
      <path class="cls-15" d="M91.2,88.35v26.33h-45.29v-26.33h45.29M92.2,87.35h-47.29v28.33h47.29v-28.33h0Z"/>
    </g>
    <text class="cls-5" transform="translate(49.21 95.92)"><tspan x="0" y="0">Construct high </tspan><tspan x="2.67" y="7.2">SNR decays </tspan><tspan x="8.01" y="14.4">per FOV</tspan></text>
  </g>
  <g>
    <g>
      <rect class="cls-18" x="100.88" y="87.85" width="32.85" height="27.33"/>
      <path class="cls-15" d="M133.23,88.35v26.33h-31.85v-26.33h31.85M134.23,87.35h-33.85v28.33h33.85v-28.33h0Z"/>
    </g>
    <text class="cls-5" transform="translate(105.47 95.92)"><tspan x="0" y="0">Optimize </tspan><tspan x="2.67" y="7.2">for IRF </tspan><tspan x="4.83" y="14.4">shifts</tspan></text>
  </g>
  <g>
    <g>
      <rect class="cls-1" x="417.33" y="40.3" width="31.43" height="20.2"/>
      <path class="cls-19" d="M448.27,40.8v19.2h-30.43v-19.2h30.43M449.27,39.8h-32.43v21.2h32.43v-21.2h0Z"/>
    </g>
    <text class="cls-5" transform="translate(422.38 48.37)"><tspan x="0" y="0">Preview </tspan><tspan x="-1.84" y="7.2">metadata</tspan></text>
  </g>
  <g>
    <g>
      <path class="cls-20" d="M465.23,40.3h16.74c4.17,0,7.55,3.38,7.55,7.55v5.1c0,4.17-3.38,7.55-7.55,7.55h-16.74c-4.17,0-7.55-3.38-7.55-7.55v-5.1c0-4.17,3.38-7.55,7.55-7.55Z"/>
      <path class="cls-17" d="M481.98,40.8c3.89,0,7.05,3.16,7.05,7.05v5.1c0,3.89-3.16,7.05-7.05,7.05h-16.74c-3.89,0-7.05-3.16-7.05-7.05v-5.1c0-3.89,3.16-7.05,7.05-7.05h16.74M481.98,39.8h-16.74c-4.45,0-8.05,3.6-8.05,8.05v5.1c0,4.45,3.6,8.05,8.05,8.05h16.74c4.45,0,8.05-3.6,8.05-8.05v-5.1c0-4.45-3.6-8.05-8.05-8.05h0Z"/>
    </g>
    <text class="cls-5" transform="translate(464.94 48.37)"><tspan x="0" y="0">Export </tspan><tspan x="-3.84" y="7.2">metadata</tspan></text>
  </g>
  <g>
    <g>
      <path class="cls-20" d="M190.3,153.18c-3.4,0-6.17-2.77-6.17-6.17s2.77-6.17,6.17-6.17h63.03c3.4,0,6.17,2.77,6.17,6.17s-2.77,6.17-6.17,6.17h-63.03Z"/>
      <path class="cls-17" d="M253.32,141.34c3.13,0,5.67,2.54,5.67,5.67s-2.54,5.67-5.67,5.67h-63.03c-3.13,0-5.67-2.54-5.67-5.67s2.54-5.67,5.67-5.67h63.03M253.32,140.34h-63.03c-3.68,0-6.67,2.99-6.67,6.67h0c0,3.68,2.99,6.67,6.67,6.67h63.03c3.68,0,6.67-2.99,6.67-6.67h0c0-3.68-2.99-6.67-6.67-6.67h0Z"/>
    </g>
    <text class="cls-5" transform="translate(188.63 148.91)"><tspan x="0" y="0">Confirm fit configurations</tspan></text>
  </g>
  <g>
    <g>
      <path class="cls-20" d="M218.56,91.42h9.33c4.17,0,7.55,3.38,7.55,7.55v5.1c0,4.17-3.38,7.55-7.55,7.55h-9.33c-4.17,0-7.55-3.38-7.55-7.55v-5.1c0-4.17,3.38-7.55,7.55-7.55Z"/>
      <path class="cls-17" d="M227.89,91.92c3.89,0,7.05,3.16,7.05,7.05v5.1c0,3.89-3.16,7.05-7.05,7.05h-9.33c-3.89,0-7.05-3.16-7.05-7.05v-5.1c0-3.89,3.16-7.05,7.05-7.05h9.33M227.89,90.92h-9.33c-4.45,0-8.05,3.6-8.05,8.05v5.1c0,4.45,3.6,8.05,8.05,8.05h9.33c4.45,0,8.05-3.6,8.05-8.05v-5.1c0-4.45-3.6-8.05-8.05-8.05h0Z"/>
    </g>
    <text class="cls-5" transform="translate(214.89 99.49)"><tspan x="0" y="0">Select </tspan><tspan x="2.84" y="7.2">shift</tspan></text>
  </g>
  <g>
    <g>
      <rect class="cls-18" x="244.62" y="91.42" width="20.43" height="20.2"/>
      <path class="cls-15" d="M264.55,91.92v19.2h-19.43v-19.2h19.43M265.55,90.92h-21.43v21.2h21.43v-21.2h0Z"/>
    </g>
    <text class="cls-5" transform="translate(248.83 99.49)"><tspan x="0" y="0">Shift </tspan><tspan x="1.17" y="7.2">IRF</tspan></text>
  </g>
  <g>
    <g>
      <rect class="cls-18" x="275.43" y="87.85" width="35.21" height="27.33"/>
      <path class="cls-15" d="M310.14,88.35v26.33h-34.21v-26.33h34.21M311.14,87.35h-36.21v28.33h36.21v-28.33h0Z"/>
    </g>
    <text class="cls-5" transform="translate(279.19 95.92)"><tspan x="0" y="0">Reference </tspan><tspan x="9" y="7.2">dye </tspan><tspan x=".17" y="14.4">calibration</tspan></text>
  </g>
  <g>
    <g>
      <path class="cls-20" d="M64.12,36.73h60.36c4.17,0,7.55,3.38,7.55,7.55v12.23c0,4.17-3.38,7.55-7.55,7.55h-60.36c-4.17,0-7.55-3.38-7.55-7.55v-12.23c0-4.17,3.38-7.55,7.55-7.55Z"/>
      <path class="cls-17" d="M124.48,37.23c3.89,0,7.05,3.16,7.05,7.05v12.23c0,3.89-3.16,7.05-7.05,7.05h-60.36c-3.89,0-7.05-3.16-7.05-7.05v-12.23c0-3.89,3.16-7.05,7.05-7.05h60.36M124.48,36.23h-60.36c-4.45,0-8.05,3.6-8.05,8.05v12.23c0,4.45,3.6,8.05,8.05,8.05h60.36c4.45,0,8.05-3.6,8.05-8.05v-12.23c0-4.45-3.6-8.05-8.05-8.05h0Z"/>
    </g>
    <text class="cls-4" transform="translate(62.45 44.8)"><tspan class="cls-6" x="0" y="0">Select channels and </tspan><tspan class="cls-10" x="55.71" y="0">for </tspan><tspan class="cls-10" x="-1.83" y="7.2">each channel </tspan><tspan class="cls-6" x="37.85" y="7.2">update file </tspan><tspan class="cls-6"><tspan x="2.56" y="14.4">su</tspan><tspan class="cls-22" x="8.9" y="14.4">f</tspan><tspan x="10.46" y="14.4">fix for required files</tspan></tspan></text>
  </g>
  <g>
    <g>
      <rect class="cls-20" x="446.91" y="87.85" width="42.62" height="27.33" rx="7.55" ry="7.55"/>
      <path class="cls-17" d="M481.98,88.35c3.89,0,7.05,3.16,7.05,7.05v12.23c0,3.89-3.16,7.05-7.05,7.05h-27.52c-3.89,0-7.05-3.16-7.05-7.05v-12.23c0-3.89,3.16-7.05,7.05-7.05h27.52M481.98,87.35h-27.52c-4.45,0-8.05,3.6-8.05,8.05v12.23c0,4.45,3.6,8.05,8.05,8.05h27.52c4.45,0,8.05-3.6,8.05-8.05v-12.23c0-4.45-3.6-8.05-8.05-8.05h0Z"/>
    </g>
    <text class="cls-5" transform="translate(450.88 95.92)"><tspan x="0" y="0">Export single </tspan><tspan x="-1" y="7.2">cell numerical </tspan><tspan x="6" y="14.4">datasets</tspan></text>
  </g>
  <g>
    <g>
      <rect class="cls-18" x="140.95" y="36.73" width="73.3" height="27.33"/>
      <path class="cls-15" d="M213.75,37.23v26.33h-72.3v-26.33h72.3M214.75,36.23h-74.3v28.33h74.3v-28.33h0Z"/>
    </g>
    <text class="cls-4" transform="translate(147.59 44.8)"><tspan class="cls-6"><tspan x="0" y="0">Group matched files in </tspan></tspan><tspan class="cls-6"><tspan x="-3" y="7.2">folder based on common </tspan></tspan><tspan class="cls-6" x="1.34" y="14.4">prefix: </tspan><tspan class="cls-10" x="19.35" y="14.4">FOV identifier</tspan></text>
  </g>
  <g>
    <line class="cls-12" x1="48.16" y1="50.4" x2="52.92" y2="50.4"/>
    <polygon class="cls-11" points="52.48 51.89 55.07 50.4 52.48 48.9 52.48 51.89"/>
  </g>
  <g>
    <line class="cls-12" x1="36.73" y1="101.52" x2="41.49" y2="101.52"/>
    <polygon class="cls-11" points="41.06 103.01 43.65 101.52 41.06 100.02 41.06 103.01"/>
  </g>
  <g>
    <g>
      <g>
        <rect class="cls-1" x="3.38" y="167.47" width="51.68" height="20.2"/>
        <path class="cls-19" d="M54.56,167.97v19.2H3.88v-19.2h50.68M55.56,166.97H2.88v21.2h52.68v-21.2h0Z"/>
      </g>
      <text class="cls-5" transform="translate(7.21 175.51)"><tspan x="0" y="0">Display datasets </tspan><tspan x=".83" y="7.2">inside the folder</tspan></text>
    </g>
    <g>
      <g>
        <rect class="cls-1" x="239.75" y="167.47" width="58.61" height="20.2"/>
        <path class="cls-19" d="M297.86,167.97v19.2h-57.61v-19.2h57.61M298.86,166.97h-59.61v21.2h59.61v-21.2h0Z"/>
      </g>
      <text class="cls-5" transform="translate(247.04 175.55)"><tspan x="0" y="0">Display datasets </tspan><tspan x="-3" y="7.2">combination status</tspan></text>
    </g>
    <g>
      <g>
        <rect class="cls-1" x="369.75" y="167.33" width="47.45" height="20.49"/>
        <path class="cls-19" d="M416.7,167.83v19.49h-46.45v-19.49h46.45M417.7,166.83h-48.45v21.49h48.45v-21.49h0Z"/>
      </g>
      <text class="cls-5" transform="translate(382.8 175.51)"><tspan x="0" y="0">Preview </tspan><tspan x="-9.01" y="7.2">mapping result</tspan></text>
    </g>
    <g>
      <g>
        <rect class="cls-18" x="64.36" y="167.47" width="65.73" height="20.2"/>
        <path class="cls-15" d="M129.59,167.97v19.2h-64.73v-19.2h64.73M130.59,166.97H63.86v21.2h66.73v-21.2h0Z"/>
      </g>
      <text class="cls-5" transform="translate(68.72 176.4)"><tspan x="0" y="0">Parse FOV identifiers </tspan><tspan x="6.67" y="7.2">using a delimiter</tspan></text>
    </g>
    <g>
      <g>
        <rect class="cls-18" x="139.4" y="167.33" width="91.04" height="20.49"/>
        <path class="cls-15" d="M229.94,167.83v19.49h-90.04v-19.49h90.04M230.94,166.83h-92.04v21.49h92.04v-21.49h0Z"/>
      </g>
      <text class="cls-5" transform="translate(143.73 175.55)"><tspan x="0" y="0">Check consistency of delimited </tspan><tspan x="13.17" y="7.2">slots across datasets</tspan></text>
    </g>
    <g>
      <path class="cls-20" d="M315.22,167.47h37.67c4.17,0,7.55,3.38,7.55,7.55v5.1c0,4.17-3.38,7.55-7.55,7.55h-37.67c-4.17,0-7.55-3.38-7.55-7.55v-5.1c0-4.17,3.38-7.55,7.55-7.55Z"/>
      <path class="cls-17" d="M352.89,167.97c3.89,0,7.05,3.16,7.05,7.05v5.1c0,3.89-3.16,7.05-7.05,7.05h-37.67c-3.89,0-7.05-3.16-7.05-7.05v-5.1c0-3.89,3.16-7.05,7.05-7.05h37.67M352.89,166.97h-37.67c-4.45,0-8.05,3.6-8.05,8.05v5.1c0,4.45,3.6,8.05,8.05,8.05h37.67c4.45,0,8.05-3.6,8.05-8.05v-5.1c0-4.45-3.6-8.05-8.05-8.05h0Z"/>
    </g>
    <text class="cls-5" transform="translate(312.88 175.55)"><tspan x="0" y="0">Map categorical </tspan><tspan x="0" y="7.2">features to slots</tspan></text>
    <g>
      <rect class="cls-20" x="426.5" y="167.33" width="56.42" height="20.49" rx="7.55" ry="7.55"/>
      <path class="cls-17" d="M475.38,167.83c3.89,0,7.05,3.16,7.05,7.05v5.39c0,3.89-3.16,7.05-7.05,7.05h-41.32c-3.89,0-7.05-3.16-7.05-7.05v-5.39c0-3.89,3.16-7.05,7.05-7.05h41.32M475.38,166.83h-41.32c-4.45,0-8.05,3.6-8.05,8.05v5.39c0,4.45,3.6,8.05,8.05,8.05h41.32c4.45,0,8.05-3.6,8.05-8.05v-5.39c0-4.45-3.6-8.05-8.05-8.05h0Z"/>
    </g>
    <text class="cls-5" transform="translate(441.04 175.55)"><tspan x="0" y="0">Export the </tspan><tspan x="-10.01" y="7.2">combined dataset</tspan></text>
    <g>
      <line class="cls-12" x1="55.56" y1="177.57" x2="60.32" y2="177.57"/>
      <polygon class="cls-11" points="59.88 179.07 62.47 177.57 59.88 176.08 59.88 179.07"/>
    </g>
    <g>
      <line class="cls-12" x1="130.59" y1="177.57" x2="135.35" y2="177.57"/>
      <polygon class="cls-11" points="134.92 179.07 137.51 177.57 134.92 176.08 134.92 179.07"/>
    </g>
    <g>
      <line class="cls-12" x1="230.94" y1="177.57" x2="235.7" y2="177.57"/>
      <polygon class="cls-11" points="235.26 179.07 237.85 177.57 235.26 176.08 235.26 179.07"/>
    </g>
    <g>
      <line class="cls-12" x1="298.86" y1="177.57" x2="303.62" y2="177.57"/>
      <polygon class="cls-11" points="303.19 179.07 305.78 177.57 303.19 176.08 303.19 179.07"/>
    </g>
    <g>
      <line class="cls-12" x1="360.94" y1="177.57" x2="365.7" y2="177.57"/>
      <polygon class="cls-11" points="365.27 179.07 367.86 177.57 365.27 176.08 365.27 179.07"/>
    </g>
    <g>
      <line class="cls-12" x1="417.7" y1="177.57" x2="422.46" y2="177.57"/>
      <polygon class="cls-11" points="422.02 179.07 424.61 177.57 422.02 176.08 422.02 179.07"/>
    </g>
  </g>
  <g>
    <line class="cls-12" x1="134.23" y1="101.52" x2="139" y2="101.52"/>
    <polygon class="cls-11" points="138.56 103.01 141.15 101.52 138.56 100.02 138.56 103.01"/>
  </g>
  <g>
    <line class="cls-12" x1="235.94" y1="101.52" x2="240.71" y2="101.52"/>
    <polygon class="cls-11" points="240.27 103.01 242.86 101.52 240.27 100.02 240.27 103.01"/>
  </g>
  <g>
    <line class="cls-12" x1="397.91" y1="101.52" x2="402.67" y2="101.52"/>
    <polygon class="cls-11" points="402.24 103.01 404.83 101.52 402.24 100.02 402.24 103.01"/>
  </g>
  <g>
    <line class="cls-12" x1="438.24" y1="101.52" x2="443" y2="101.52"/>
    <polygon class="cls-11" points="442.56 103.01 445.15 101.52 442.56 100.02 442.56 103.01"/>
  </g>
  <g>
    <line class="cls-12" x1="473.61" y1="61" x2="473.61" y2="63.61"/>
    <polygon class="cls-11" points="472.11 63.18 473.61 65.77 475.1 63.18 472.11 63.18"/>
  </g>
  <g>
    <line class="cls-12" x1="468.22" y1="115.68" x2="468.22" y2="118.3"/>
    <polygon class="cls-11" points="466.72 117.86 468.22 120.45 469.71 117.86 466.72 117.86"/>
  </g>
  <g>
    <line class="cls-12" x1="221.81" y1="140.34" x2="221.81" y2="137.57"/>
    <polygon class="cls-11" points="223.31 138.01 221.81 135.42 220.31 138.01 223.31 138.01"/>
  </g>
  <g>
    <line class="cls-12" x1="382.77" y1="122.62" x2="382.77" y2="118.85"/>
    <polygon class="cls-11" points="384.26 119.29 382.77 116.7 381.27 119.29 384.26 119.29"/>
  </g>
  <g>
    <line class="cls-12" x1="92.2" y1="101.52" x2="96.96" y2="101.52"/>
    <polygon class="cls-11" points="96.53 103.01 99.12 101.52 96.53 100.02 96.53 103.01"/>
  </g>
  <g>
    <line class="cls-12" x1="202.33" y1="101.52" x2="207.09" y2="101.52"/>
    <polygon class="cls-11" points="206.66 103.01 209.25 101.52 206.66 100.02 206.66 103.01"/>
  </g>
  <g>
    <line class="cls-12" x1="132.53" y1="50.4" x2="137.3" y2="50.4"/>
    <polygon class="cls-11" points="136.86 51.89 139.45 50.4 136.86 48.9 136.86 51.89"/>
  </g>
  <g>
    <line class="cls-12" x1="214.75" y1="50.4" x2="219.52" y2="50.4"/>
    <polygon class="cls-11" points="219.08 51.89 221.67 50.4 219.08 48.9 219.08 51.89"/>
  </g>
  <g>
    <line class="cls-12" x1="261.54" y1="50.4" x2="266.3" y2="50.4"/>
    <polygon class="cls-11" points="265.87 51.89 268.46 50.4 265.87 48.9 265.87 51.89"/>
  </g>
  <g>
    <line class="cls-12" x1="346.7" y1="50.4" x2="351.46" y2="50.4"/>
    <polygon class="cls-11" points="351.03 51.89 353.62 50.4 351.03 48.9 351.03 51.89"/>
  </g>
  <g>
    <line class="cls-12" x1="408.92" y1="50.4" x2="413.68" y2="50.4"/>
    <polygon class="cls-11" points="413.24 51.89 415.83 50.4 413.24 48.9 413.24 51.89"/>
  </g>
  <g>
    <line class="cls-12" x1="449.27" y1="50.4" x2="454.03" y2="50.4"/>
    <polygon class="cls-11" points="453.59 51.89 456.18 50.4 453.59 48.9 453.59 51.89"/>
  </g>
  <line class="cls-14" x1="306.49" y1="33.27" x2="306.49" y2="36.23"/>
  <line class="cls-14" x1="310.5" y1="33.27" x2="310.5" y2="36.23"/>
  <g>
    <g>
      <polygon class="cls-18" points="106.55 134.03 111.35 128.51 106.55 122.99 199.31 122.99 204.12 128.51 199.31 134.03 106.55 134.03"/>
      <path class="cls-11" d="M199.14,123.37l4.48,5.14-4.48,5.14h-91.77l4.05-4.65.43-.49-.43-.49-4.05-4.65h91.77M199.48,122.62h-93.76l5.13,5.89-5.13,5.89h93.76l5.13-5.89-5.13-5.89h0Z"/>
    </g>
    <text class="cls-3" transform="translate(114.49 130.29)"><tspan x="0" y="0">Construct single cell signals</tspan></text>
  </g>
  <g>
    <g>
      <polygon class="cls-18" points="201.4 134.03 206.2 128.51 201.4 122.99 248.25 122.99 253.05 128.51 248.25 134.03 201.4 134.03"/>
      <path class="cls-11" d="M248.08,123.37l4.48,5.14-4.48,5.14h-45.86l4.05-4.65.43-.49-.43-.49-4.05-4.65h45.86M248.42,122.62h-47.85l5.13,5.89-5.13,5.89h47.85l5.13-5.89-5.13-5.89h0Z"/>
    </g>
    <text class="cls-3" transform="translate(210.9 130.29)"><tspan x="0" y="0">Lifetime: fit</tspan></text>
  </g>
  <g>
    <g>
      <polygon class="cls-18" points="250.33 134.03 255.14 128.51 250.33 122.99 311.2 122.99 316 128.51 311.2 134.03 250.33 134.03"/>
      <path class="cls-11" d="M311.03,123.37l4.48,5.14-4.48,5.14h-59.87l4.05-4.65.43-.49-.43-.49-4.05-4.65h59.87M311.37,122.62h-61.86l5.13,5.89-5.13,5.89h61.86l5.13-5.89-5.13-5.89h0Z"/>
    </g>
    <text class="cls-3" transform="translate(259.63 130.29)"><tspan x="0" y="0">Lifetime: phasor</tspan></text>
  </g>
  <g>
    <polygon class="cls-18" points="313.29 134.03 318.09 128.51 313.28 122.99 363.14 122.99 367.95 128.51 363.14 134.03 313.29 134.03"/>
    <path class="cls-11" d="M362.97,123.37l4.48,5.14-4.48,5.14h-48.86l4.05-4.65.43-.49-.43-.49-4.05-4.65h48.86M363.31,122.62h-50.85l5.13,5.89-5.13,5.89h50.85l5.13-5.89-5.13-5.89h0Z"/>
  </g>
  <text class="cls-3" transform="translate(323.29 130.29)"><tspan x="0" y="0">Morphology</tspan></text>
  <g>
    <g>
      <polygon class="cls-18" points="365.23 134.03 370.03 128.51 365.23 122.99 399.07 122.99 403.87 128.51 399.07 134.03 365.23 134.03"/>
      <path class="cls-11" d="M398.9,123.37l4.48,5.14-4.48,5.14h-32.85l4.05-4.65.43-.49-.43-.49-4.05-4.65h32.85M399.24,122.62h-34.84l5.13,5.89-5.13,5.89h34.84l5.13-5.89-5.13-5.89h0Z"/>
    </g>
    <text class="cls-3" transform="translate(373.77 130.29)"><tspan class="cls-21" x="0" y="0">T</tspan><tspan x="3.22" y="0">exture</tspan></text>
  </g>
  <text class="cls-5" transform="translate(395.61 15.92)"><tspan x="0" y="0">Interactive control</tspan></text>
  <g>
    <circle class="cls-20" cx="389.16" cy="13.74" r="3.14"/>
    <path class="cls-17" d="M389.16,11.1c1.46,0,2.64,1.18,2.64,2.64s-1.18,2.64-2.64,2.64-2.64-1.18-2.64-2.64,1.18-2.64,2.64-2.64M389.16,10.1h0c-2.01,0-3.64,1.63-3.64,3.64h0c0,2.01,1.63,3.64,3.64,3.64h0c2.01,0,3.64-1.63,3.64-3.64h0c0-2.01-1.63-3.64-3.64-3.64h0Z"/>
  </g>
  <text class="cls-5" transform="translate(395.61 24.85)"><tspan x="0" y="0">Feedback provided to user</tspan></text>
  <g>
    <rect class="cls-1" x="386.02" y="19.52" width="6.28" height="6.28"/>
    <path class="cls-19" d="M391.8,20.02v5.28h-5.28v-5.28h5.28M392.8,19.02h-7.28v7.28h7.28v-7.28h0Z"/>
  </g>
</svg>