<svg class="main-svg" xmlns="http://www.w3.org/2000/svg" xmlns:xlink="http://www.w3.org/1999/xlink" width="700" height="500" style="" viewBox="0 0 700 500"><rect x="0" y="0" width="700" height="500" style="fill: rgb(255, 255, 255); fill-opacity: 1;"/><defs id="defs-f4ebde"><g class="clips"><clipPath id="clipf4ebdexyplot" class="plotclip"><rect width="377" height="320"/></clipPath><clipPath class="axesclip" id="clipf4ebdex"><rect x="80" y="0" width="377" height="500"/></clipPath><clipPath class="axesclip" id="clipf4ebdey"><rect x="0" y="100" width="700" height="320"/></clipPath><clipPath class="axesclip" id="clipf4ebdexy"><rect x="80" y="100" width="377" height="320"/></clipPath></g><g class="gradients"/><g class="patterns"/></defs><g class="bglayer"/><g class="layer-below"><g class="imagelayer"/><g class="shapelayer"/></g><g class="cartesianlayer"><g class="subplot xy"><g class="layer-subplot"><g class="shapelayer"/><g class="imagelayer"/></g><g class="minor-gridlayer"><g class="x"/><g class="y"/></g><g class="gridlayer"><g class="x"><path class="xgrid crisp" transform="translate(173.13,0)" d="M0,100v320" style="stroke: rgb(238, 238, 238); stroke-opacity: 1; stroke-width: 1px;"/><path class="xgrid crisp" transform="translate(284.84000000000003,0)" d="M0,100v320" style="stroke: rgb(238, 238, 238); stroke-opacity: 1; stroke-width: 1px;"/><path class="xgrid crisp" transform="translate(396.55,0)" d="M0,100v320" style="stroke: rgb(238, 238, 238); stroke-opacity: 1; stroke-width: 1px;"/></g><g class="y"><path class="ygrid crisp" transform="translate(0,342.03999999999996)" d="M80,0h377" style="stroke: rgb(238, 238, 238); stroke-opacity: 1; stroke-width: 1px;"/><path class="ygrid crisp" transform="translate(0,280.08000000000004)" d="M80,0h377" style="stroke: rgb(238, 238, 238); stroke-opacity: 1; stroke-width: 1px;"/><path class="ygrid crisp" transform="translate(0,218.12)" d="M80,0h377" style="stroke: rgb(238, 238, 238); stroke-opacity: 1; stroke-width: 1px;"/><path class="ygrid crisp" transform="translate(0,156.16)" d="M80,0h377" style="stroke: rgb(238, 238, 238); stroke-opacity: 1; stroke-width: 1px;"/></g></g><g class="zerolinelayer"><path class="yzl zl crisp" transform="translate(0,404)" d="M80,0h377" style="stroke: rgb(68, 68, 68); stroke-opacity: 1; stroke-width: 1px;"/></g><g class="layer-between"><g class="shapelayer"/><g class="imagelayer"/></g><path class="xlines-below"/><path class="ylines-below"/><g class="overlines-below"/><g class="xaxislayer-below"/><g class="yaxislayer-below"/><g class="overaxes-below"/><g class="overplot"><g class="xy" transform="translate(80,100)" clip-path="url(#clipf4ebdexyplot)"><g class="scatterlayer mlayer"><g class="trace scatter tracee21447" style="stroke-miterlimit: 2; opacity: 1;"><g class="fills"/><g class="errorbars"/><g class="lines"><path class="js-line" d="M0,295.56L10.94,290.74L11.32,290.55L21.51,284.36L21.89,284.1L31.32,276.76L31.7,276.43L42.64,265.99L43.02,265.6L55.1,252.14L55.47,251.69L86.42,216.31L86.8,215.95L95.85,208.42L96.23,208.15L104.53,203.53L104.91,203.38L111.33,201.57L111.7,201.51L117.36,201.29L117.74,201.32L123.78,202.52L124.16,202.64L131.33,205.9L131.7,206.13L138.5,210.87L138.87,211.17L147.93,219.51L148.31,219.9L158.88,231.52L159.25,231.96L180.39,255.35L180.76,255.7L188.69,262L189.07,262.24L195.1,264.97L195.48,265.06L200.01,265.44L200.39,265.4L204.92,263.92L205.29,263.71L209.44,260.39L209.82,260L214.35,253.89L214.73,253.26L219.26,244.23L219.63,243.34L224.54,230.01L224.92,228.84L231.33,205.83L231.71,204.3L238.88,172L239.26,170.16L261.52,59.82L261.9,58.34L267.18,40.61L267.56,39.59L271.71,30.75L272.09,30.17L275.11,27.02L275.49,26.81L277.75,26.42L278.13,26.5L280.39,27.85L280.77,28.21L283.41,31.93L283.79,32.61L287.18,40.53L287.56,41.59L292.09,56.92L292.47,58.4L299.26,89.15L299.64,91.04L310.58,149.78L310.96,151.83L322.28,209.09L322.66,210.79L330.21,241.1L330.58,242.43L337.38,263.07L337.75,264.05L343.79,277.4L344.17,278.1L350.21,287.45L350.58,287.92L356.24,293.82L356.62,294.14L362.66,298.18L363.04,298.38L369.83,301.04L370.21,301.15L377,302.58" style="vector-effect: none; fill: none; stroke: rgb(31, 119, 180); stroke-opacity: 1; stroke-width: 2px; opacity: 1;"/></g><g class="points"/><g class="text"/></g><g class="trace scatter trace5d13af" style="stroke-miterlimit: 2; opacity: 1;"><g class="fills"/><g class="errorbars"/><g class="lines"><path class="js-line" d="M0,295.56L10.94,290.74L11.32,290.55L21.51,284.36L21.89,284.1L31.32,276.76L31.7,276.43L42.64,265.99L43.02,265.6L55.1,252.14L55.47,251.69L86.42,216.31L86.8,215.95L95.85,208.42L96.23,208.15L104.53,203.53L104.91,203.38L111.33,201.57L111.7,201.51L117.36,201.29L117.74,201.32L123.78,202.52L124.16,202.64L131.33,205.91L131.7,206.13L138.5,210.88L138.87,211.18L147.55,219.16L147.93,219.55L160.01,233.02L160.39,233.46L185.67,263.06L186.05,263.47L197.37,274.65L197.75,274.99L207.18,282.66L207.56,282.93L216.24,288.6L216.61,288.82L228.31,294.49L228.69,294.64L240.01,298.35L240.39,298.44L252.84,300.98L253.22,301.04L268.69,302.73L269.07,302.75L289.83,303.65L290.2,303.66L330.58,303.98L330.96,303.98L377,304" style="vector-effect: none; fill: none; stroke: rgb(31, 119, 180); stroke-opacity: 1; stroke-dasharray: 9px, 9px; stroke-width: 1px; opacity: 1;"/></g><g class="points"/><g class="text"/></g><g class="trace scatter tracec9fb09" style="stroke-miterlimit: 2; opacity: 1;"><g class="fills"/><g class="errorbars"/><g class="lines"><path class="js-line" d="M0,304L171.71,303.26L172.08,303.23L182.27,301.73L182.65,301.64L190.2,299.11L190.58,298.93L196.24,295.61L196.61,295.33L201.9,290.56L202.27,290.15L207.56,283.2L207.93,282.61L213.22,272.89L213.6,272.08L219.63,256.87L220.01,255.77L226.05,235.66L226.43,234.24L233.97,202.18L234.35,200.4L243.03,156.01L243.41,153.97L260.01,68.09L260.39,66.46L266.43,44.21L266.81,43.09L270.96,33.13L271.33,32.46L274.73,28.17L275.11,27.9L277.75,27.17L278.13,27.23L280.39,28.48L280.77,28.83L283.41,32.45L283.79,33.13L287.18,40.94L287.56,41.99L292.09,57.22L292.47,58.69L299.26,89.33L299.64,91.22L310.96,151.91L311.34,153.96L321.15,203.93L321.53,205.68L328.7,235.65L329.07,237.04L335.87,259.01L336.24,260.05L342.28,274.45L342.66,275.21L348.32,284.89L348.7,285.42L353.98,291.73L354.36,292.11L360.02,296.64L360.4,296.88L366.81,300.04L367.19,300.18L374.74,302.2L375.11,302.27L377,302.58" style="vector-effect: none; fill: none; stroke: rgb(31, 119, 180); stroke-opacity: 1; stroke-dasharray: 3px, 3px; stroke-width: 1px; opacity: 1;"/></g><g class="points"/><g class="text"/></g></g></g></g><path class="xlines-above crisp" d="M0,0" style="fill: none;"/><path class="ylines-above crisp" d="M0,0" style="fill: none;"/><g class="overlines-above"/><g class="xaxislayer-above"><g class="xtick"><text text-anchor="middle" x="0" y="436" transform="translate(173.13,0)" style="font-family: 'Open Sans', verdana, arial, sans-serif; font-size: 15px; fill: rgb(68, 68, 68); fill-opacity: 1; white-space: pre; opacity: 1;">0.4</text></g><g class="xtick"><text text-anchor="middle" x="0" y="436" style="font-family: 'Open Sans', verdana, arial, sans-serif; font-size: 15px; fill: rgb(68, 68, 68); fill-opacity: 1; white-space: pre; opacity: 1;" transform="translate(284.84000000000003,0)">0.6</text></g><g class="xtick"><text text-anchor="middle" x="0" y="436" style="font-family: 'Open Sans', verdana, arial, sans-serif; font-size: 15px; fill: rgb(68, 68, 68); fill-opacity: 1; white-space: pre; opacity: 1;" transform="translate(396.55,0)">0.8</text></g></g><g class="yaxislayer-above"><g class="ytick"><text text-anchor="end" x="79" y="5.25" transform="translate(0,404)" style="font-family: 'Open Sans', verdana, arial, sans-serif; font-size: 15px; fill: rgb(68, 68, 68); fill-opacity: 1; white-space: pre; opacity: 1;">0</text></g><g class="ytick"><text text-anchor="end" x="79" y="5.25" style="font-family: 'Open Sans', verdana, arial, sans-serif; font-size: 15px; fill: rgb(68, 68, 68); fill-opacity: 1; white-space: pre; opacity: 1;" transform="translate(0,342.03999999999996)">1</text></g><g class="ytick"><text text-anchor="end" x="79" y="5.25" style="font-family: 'Open Sans', verdana, arial, sans-serif; font-size: 15px; fill: rgb(68, 68, 68); fill-opacity: 1; white-space: pre; opacity: 1;" transform="translate(0,280.08000000000004)">2</text></g><g class="ytick"><text text-anchor="end" x="79" y="5.25" style="font-family: 'Open Sans', verdana, arial, sans-serif; font-size: 15px; fill: rgb(68, 68, 68); fill-opacity: 1; white-space: pre; opacity: 1;" transform="translate(0,218.12)">3</text></g><g class="ytick"><text text-anchor="end" x="79" y="5.25" style="font-family: 'Open Sans', verdana, arial, sans-serif; font-size: 15px; fill: rgb(68, 68, 68); fill-opacity: 1; white-space: pre; opacity: 1;" transform="translate(0,156.16)">4</text></g></g><g class="overaxes-above"/></g></g><g class="polarlayer"/><g class="smithlayer"/><g class="ternarylayer"/><g class="geolayer"/><g class="funnelarealayer"/><g class="pielayer"/><g class="iciclelayer"/><g class="treemaplayer"/><g class="sunburstlayer"/><g class="glimages"/><defs id="topdefs-f4ebde"><g class="clips"/><clipPath id="legendf4ebde"><rect width="223" height="82" x="0" y="0"/></clipPath></defs><g class="layer-above"><g class="imagelayer"/><g class="shapelayer"><g class="shape-group" data-index="0" clip-path="url(#clipf4ebdexy)"><path data-index="0" fill-rule="evenodd" d="M287.66999999999996,404L287.66999999999996,126.38" style="opacity: 1; stroke: rgb(31, 119, 180); stroke-opacity: 0.5; fill: rgb(0, 0, 0); fill-opacity: 0; stroke-dasharray: 9px, 9px; stroke-width: 2px;"/></g></g></g><g class="infolayer"><g class="legend" pointer-events="all" transform="translate(464.54,100)"><rect class="bg" shape-rendering="crispEdges" style="stroke: rgb(68, 68, 68); stroke-opacity: 1; fill: rgb(255, 255, 255); fill-opacity: 1; stroke-width: 0px;" width="223" height="82" x="0" y="0"/><g class="scrollbox" transform="" clip-path="url(#legendf4ebde)"><g class="groups"><g class="traces" transform="translate(0,16.9)" style="opacity: 1;"><text class="legendtext" text-anchor="start" x="40" y="6.24" style="font-family: 'Open Sans', verdana, arial, sans-serif; font-size: 16px; fill: rgb(68, 68, 68); fill-opacity: 1; white-space: pre;">all_data GMM</text><g class="layers" style="opacity: 1;"><g class="legendfill"/><g class="legendlines"><path class="js-line" d="M5,0h30" style="fill: none; stroke: rgb(31, 119, 180); stroke-opacity: 1; stroke-width: 2px;"/></g><g class="legendsymbols"><g class="legendpoints"/></g></g><rect class="legendtoggle" x="0" y="-11.9" width="217.6875" height="23.8" style="fill: rgb(0, 0, 0); fill-opacity: 0;"/></g><g class="traces" transform="translate(0,40.7)" style="opacity: 1;"><text class="legendtext" text-anchor="start" x="40" y="6.24" style="font-family: 'Open Sans', verdana, arial, sans-serif; font-size: 16px; fill: rgb(68, 68, 68); fill-opacity: 1; white-space: pre;">all_data Component 1</text><g class="layers" style="opacity: 1;"><g class="legendfill"/><g class="legendlines"><path class="js-line" d="M5,0h30" style="fill: none; stroke: rgb(31, 119, 180); stroke-opacity: 1; stroke-dasharray: 9px, 9px; stroke-width: 1px;"/></g><g class="legendsymbols"><g class="legendpoints"/></g></g><rect class="legendtoggle" x="0" y="-11.9" width="217.6875" height="23.8" style="fill: rgb(0, 0, 0); fill-opacity: 0;"/></g><g class="traces" transform="translate(0,64.5)" style="opacity: 1;"><text class="legendtext" text-anchor="start" x="40" y="6.24" style="font-family: 'Open Sans', verdana, arial, sans-serif; font-size: 16px; fill: rgb(68, 68, 68); fill-opacity: 1; white-space: pre;">all_data Component 2</text><g class="layers" style="opacity: 1;"><g class="legendfill"/><g class="legendlines"><path class="js-line" d="M5,0h30" style="fill: none; stroke: rgb(31, 119, 180); stroke-opacity: 1; stroke-dasharray: 3px, 3px; stroke-width: 1px;"/></g><g class="legendsymbols"><g class="legendpoints"/></g></g><rect class="legendtoggle" x="0" y="-11.9" width="217.6875" height="23.8" style="fill: rgb(0, 0, 0); fill-opacity: 0;"/></g></g></g><rect class="scrollbar" rx="20" ry="3" width="0" height="0" style="fill: rgb(128, 139, 164); fill-opacity: 1;" x="0" y="0"/></g><g class="g-gtitle"/><g class="g-xtitle"/><g class="g-ytitle"/><g class="annotation" data-index="0" style="opacity: 1;"><g class="annotation-text-g" transform="rotate(0,287.66999999999996,112.5)"><g class="cursor-pointer" transform="translate(214,100)"><rect class="bg" x="0.5" y="0.5" width="147" height="24" style="stroke-width: 1px; stroke: rgb(0, 0, 0); stroke-opacity: 0; fill: rgb(0, 0, 0); fill-opacity: 0;"/><text class="annotation-text" text-anchor="middle" x="73.9140625" y="19" style="font-family: 'Open Sans', verdana, arial, sans-serif; font-size: 17px; fill: rgb(68, 68, 68); fill-opacity: 1; white-space: pre;">Threshold (0.61)</text></g></g></g></g></svg>