<svg class="main-svg" xmlns="http://www.w3.org/2000/svg" xmlns:xlink="http://www.w3.org/1999/xlink" width="700" height="500" style="" viewBox="0 0 700 500"><rect x="0" y="0" width="700" height="500" style="fill: rgb(255, 255, 255); fill-opacity: 1;"/><defs id="defs-8928cf"><g class="clips"><clipPath id="clip8928cfxyplot" class="plotclip"><rect width="377" height="320"/></clipPath><clipPath class="axesclip" id="clip8928cfx"><rect x="80" y="0" width="377" height="500"/></clipPath><clipPath class="axesclip" id="clip8928cfy"><rect x="0" y="100" width="700" height="320"/></clipPath><clipPath class="axesclip" id="clip8928cfxy"><rect x="80" y="100" width="377" height="320"/></clipPath></g><g class="gradients"/><g class="patterns"/></defs><g class="bglayer"/><g class="layer-below"><g class="imagelayer"/><g class="shapelayer"/></g><g class="cartesianlayer"><g class="subplot xy"><g class="layer-subplot"><g class="shapelayer"/><g class="imagelayer"/></g><g class="minor-gridlayer"><g class="x"/><g class="y"/></g><g class="gridlayer"><g class="x"><path class="xgrid crisp" transform="translate(129.59,0)" d="M0,100v320" style="stroke: rgb(238, 238, 238); stroke-opacity: 1; stroke-width: 1px;"/><path class="xgrid crisp" transform="translate(206.76999999999998,0)" d="M0,100v320" style="stroke: rgb(238, 238, 238); stroke-opacity: 1; stroke-width: 1px;"/><path class="xgrid crisp" transform="translate(283.96000000000004,0)" d="M0,100v320" style="stroke: rgb(238, 238, 238); stroke-opacity: 1; stroke-width: 1px;"/><path class="xgrid crisp" transform="translate(361.14,0)" d="M0,100v320" style="stroke: rgb(238, 238, 238); stroke-opacity: 1; stroke-width: 1px;"/><path class="xgrid crisp" transform="translate(438.32,0)" d="M0,100v320" style="stroke: rgb(238, 238, 238); stroke-opacity: 1; stroke-width: 1px;"/></g><g class="y"><path class="ygrid crisp" transform="translate(0,367.15)" d="M80,0h377" style="stroke: rgb(238, 238, 238); stroke-opacity: 1; stroke-width: 1px;"/><path class="ygrid crisp" transform="translate(0,330.3)" d="M80,0h377" style="stroke: rgb(238, 238, 238); stroke-opacity: 1; stroke-width: 1px;"/><path class="ygrid crisp" transform="translate(0,293.44)" d="M80,0h377" style="stroke: rgb(238, 238, 238); stroke-opacity: 1; stroke-width: 1px;"/><path class="ygrid crisp" transform="translate(0,256.59000000000003)" d="M80,0h377" style="stroke: rgb(238, 238, 238); stroke-opacity: 1; stroke-width: 1px;"/><path class="ygrid crisp" transform="translate(0,219.74)" d="M80,0h377" style="stroke: rgb(238, 238, 238); stroke-opacity: 1; stroke-width: 1px;"/><path class="ygrid crisp" transform="translate(0,182.89)" d="M80,0h377" style="stroke: rgb(238, 238, 238); stroke-opacity: 1; stroke-width: 1px;"/><path class="ygrid crisp" transform="translate(0,146.03)" d="M80,0h377" style="stroke: rgb(238, 238, 238); stroke-opacity: 1; stroke-width: 1px;"/><path class="ygrid crisp" transform="translate(0,109.18)" d="M80,0h377" style="stroke: rgb(238, 238, 238); stroke-opacity: 1; stroke-width: 1px;"/></g></g><g class="zerolinelayer"><path class="yzl zl crisp" transform="translate(0,404)" d="M80,0h377" style="stroke: rgb(68, 68, 68); stroke-opacity: 1; stroke-width: 1px;"/></g><g class="layer-between"><g class="shapelayer"/><g class="imagelayer"/></g><path class="xlines-below"/><path class="ylines-below"/><g class="overlines-below"/><g class="xaxislayer-below"/><g class="yaxislayer-below"/><g class="overaxes-below"/><g class="overplot"><g class="xy" transform="translate(80,100)" clip-path="url(#clip8928cfxyplot)"><g class="scatterlayer mlayer"><g class="trace scatter trace856062" style="stroke-miterlimit: 2; opacity: 1;"><g class="fills"/><g class="errorbars"/><g class="lines"><path class="js-line" d="M0,304L49.44,303.25L49.81,303.21L58.87,301.79L59.25,301.7L66.04,299.36L66.42,299.18L72.08,295.72L72.46,295.43L78.12,289.88L78.49,289.42L83.4,282.27L83.78,281.61L88.68,271.66L89.06,270.77L94.34,256.31L94.72,255.12L100.38,234.85L100.76,233.32L107.18,204.35L107.55,202.48L116.23,155.3L116.61,153.13L132.08,67.94L132.46,66.2L138.12,43.98L138.5,42.78L142.27,33.01L142.65,32.26L146.05,27.54L146.42,27.24L148.69,26.38L149.06,26.4L151.33,27.42L151.71,27.75L154.35,31.21L154.72,31.87L158.12,39.52L158.5,40.55L163.03,55.27L163.4,56.67L170.57,86.35L170.95,88.01L182.27,134.46L182.65,135.77L188.31,152.27L188.69,153.15L192.84,160.96L193.22,161.5L196.61,165.12L196.99,165.39L200.39,166.79L200.76,166.83L204.16,166.47L204.54,166.35L209.82,163.8L210.2,163.58L217.37,160.24L217.75,160.16L221.52,160.17L221.9,160.27L225.29,162.05L225.67,162.35L229.45,166.6L229.82,167.15L233.97,174.6L234.35,175.4L239.63,188.54L240.01,189.6L247.94,214.14L248.31,215.38L262.28,258.35L262.65,259.35L269.82,275.84L270.2,276.58L276.24,286.58L276.62,287.09L281.9,293.18L282.28,293.54L288.69,298.28L289.07,298.49L295.49,301.19L295.86,301.3L304.17,302.98L304.54,303.02L315.86,303.78L316.24,303.79L352.47,304L352.85,304L377,304" style="vector-effect: none; fill: none; stroke: rgb(31, 119, 180); stroke-opacity: 1; stroke-width: 2px; opacity: 1;"/></g><g class="points"/><g class="text"/></g><g class="trace scatter trace2c4c26" style="stroke-miterlimit: 2; opacity: 1;"><g class="fills"/><g class="errorbars"/><g class="lines"><path class="js-line" d="M0,304L49.44,303.25L49.81,303.21L58.87,301.79L59.25,301.7L66.04,299.36L66.42,299.18L72.08,295.72L72.46,295.43L78.12,289.88L78.49,289.42L83.4,282.27L83.78,281.61L88.68,271.66L89.06,270.77L94.34,256.31L94.72,255.12L100.38,234.85L100.76,233.33L107.18,204.36L107.55,202.48L115.85,157.49L116.23,155.32L132.08,68.1L132.46,66.38L138.12,44.36L138.5,43.18L142.27,33.67L142.65,32.95L145.67,28.89L146.05,28.59L148.31,27.8L148.69,27.83L150.95,29.03L151.33,29.4L153.97,33.25L154.35,33.98L158.12,43.67L158.5,44.86L163.03,62.06L163.4,63.71L169.44,93.61L169.82,95.66L184.54,179.57L184.91,181.62L193.59,224.45L193.97,226.09L200.76,251.97L201.14,253.21L207.18,270.24L207.56,271.14L212.84,281.89L213.22,282.53L218.88,290.51L219.26,290.94L224.54,295.84L224.92,296.12L230.95,299.6L231.33,299.76L238.5,302L238.88,302.08L248.31,303.35L248.69,303.38L264.92,303.93L265.3,303.93L377,304" style="vector-effect: none; fill: none; stroke: rgb(31, 119, 180); stroke-opacity: 1; stroke-dasharray: 9px, 9px; stroke-width: 1px; opacity: 1;"/></g><g class="points"/><g class="text"/></g><g class="trace scatter trace188692" style="stroke-miterlimit: 2; opacity: 1;"><g class="fills"/><g class="errorbars"/><g class="lines"><path class="js-line" d="M0,304L143.03,303.28L143.4,303.24L153.59,301.45L153.97,301.34L160.39,298.77L160.76,298.57L166.42,294.67L166.8,294.34L171.71,289.23L172.08,288.76L177.37,280.96L177.74,280.31L183.41,268.98L183.78,268.12L190.58,250.5L190.95,249.41L200.39,220.07L200.76,218.86L210.95,188.72L211.33,187.77L216.61,176.77L216.99,176.16L220.77,171.49L221.14,171.18L224.16,169.72L224.54,169.67L227.18,170.15L227.56,170.34L230.2,172.46L230.58,172.88L234.35,178.51L234.73,179.21L239.26,189.34L239.63,190.31L246.05,208.87L246.43,210.05L262.65,259.45L263.03,260.42L269.82,275.88L270.2,276.61L276.24,286.59L276.62,287.11L282.28,293.54L282.66,293.89L287.94,297.84L288.32,298.07L295.11,301.07L295.49,301.19L303.79,302.93L304.17,302.98L319.26,303.87L319.64,303.87L352.85,304L353.23,304L377,304" style="vector-effect: none; fill: none; stroke: rgb(31, 119, 180); stroke-opacity: 1; stroke-dasharray: 3px, 3px; stroke-width: 1px; opacity: 1;"/></g><g class="points"/><g class="text"/></g></g></g></g><path class="xlines-above crisp" d="M0,0" style="fill: none;"/><path class="ylines-above crisp" d="M0,0" style="fill: none;"/><g class="overlines-above"/><g class="xaxislayer-above"><g class="xtick"><text text-anchor="middle" x="0" y="436" transform="translate(129.59,0)" style="font-family: 'Open Sans', verdana, arial, sans-serif; font-size: 15px; fill: rgb(68, 68, 68); fill-opacity: 1; white-space: pre; opacity: 1;">50</text></g><g class="xtick"><text text-anchor="middle" x="0" y="436" style="font-family: 'Open Sans', verdana, arial, sans-serif; font-size: 15px; fill: rgb(68, 68, 68); fill-opacity: 1; white-space: pre; opacity: 1;" transform="translate(206.76999999999998,0)">60</text></g><g class="xtick"><text text-anchor="middle" x="0" y="436" style="font-family: 'Open Sans', verdana, arial, sans-serif; font-size: 15px; fill: rgb(68, 68, 68); fill-opacity: 1; white-space: pre; opacity: 1;" transform="translate(283.96000000000004,0)">70</text></g><g class="xtick"><text text-anchor="middle" x="0" y="436" style="font-family: 'Open Sans', verdana, arial, sans-serif; font-size: 15px; fill: rgb(68, 68, 68); fill-opacity: 1; white-space: pre; opacity: 1;" transform="translate(361.14,0)">80</text></g><g class="xtick"><text text-anchor="middle" x="0" y="436" style="font-family: 'Open Sans', verdana, arial, sans-serif; font-size: 15px; fill: rgb(68, 68, 68); fill-opacity: 1; white-space: pre; opacity: 1;" transform="translate(438.32,0)">90</text></g></g><g class="yaxislayer-above"><g class="ytick"><text text-anchor="end" x="79" y="5.25" transform="translate(0,404)" style="font-family: 'Open Sans', verdana, arial, sans-serif; font-size: 15px; fill: rgb(68, 68, 68); fill-opacity: 1; white-space: pre; opacity: 1;">0</text></g><g class="ytick"><text text-anchor="end" x="79" y="5.25" style="font-family: 'Open Sans', verdana, arial, sans-serif; font-size: 15px; fill: rgb(68, 68, 68); fill-opacity: 1; white-space: pre; opacity: 1;" transform="translate(0,367.15)">0.01</text></g><g class="ytick"><text text-anchor="end" x="79" y="5.25" style="font-family: 'Open Sans', verdana, arial, sans-serif; font-size: 15px; fill: rgb(68, 68, 68); fill-opacity: 1; white-space: pre; opacity: 1;" transform="translate(0,330.3)">0.02</text></g><g class="ytick"><text text-anchor="end" x="79" y="5.25" style="font-family: 'Open Sans', verdana, arial, sans-serif; font-size: 15px; fill: rgb(68, 68, 68); fill-opacity: 1; white-space: pre; opacity: 1;" transform="translate(0,293.44)">0.03</text></g><g class="ytick"><text text-anchor="end" x="79" y="5.25" style="font-family: 'Open Sans', verdana, arial, sans-serif; font-size: 15px; fill: rgb(68, 68, 68); fill-opacity: 1; white-space: pre; opacity: 1;" transform="translate(0,256.59000000000003)">0.04</text></g><g class="ytick"><text text-anchor="end" x="79" y="5.25" style="font-family: 'Open Sans', verdana, arial, sans-serif; font-size: 15px; fill: rgb(68, 68, 68); fill-opacity: 1; white-space: pre; opacity: 1;" transform="translate(0,219.74)">0.05</text></g><g class="ytick"><text text-anchor="end" x="79" y="5.25" style="font-family: 'Open Sans', verdana, arial, sans-serif; font-size: 15px; fill: rgb(68, 68, 68); fill-opacity: 1; white-space: pre; opacity: 1;" transform="translate(0,182.89)">0.06</text></g><g class="ytick"><text text-anchor="end" x="79" y="5.25" style="font-family: 'Open Sans', verdana, arial, sans-serif; font-size: 15px; fill: rgb(68, 68, 68); fill-opacity: 1; white-space: pre; opacity: 1;" transform="translate(0,146.03)">0.07</text></g><g class="ytick"><text text-anchor="end" x="79" y="5.25" style="font-family: 'Open Sans', verdana, arial, sans-serif; font-size: 15px; fill: rgb(68, 68, 68); fill-opacity: 1; white-space: pre; opacity: 1;" transform="translate(0,109.18)">0.08</text></g></g><g class="overaxes-above"/></g></g><g class="polarlayer"/><g class="smithlayer"/><g class="ternarylayer"/><g class="geolayer"/><g class="funnelarealayer"/><g class="pielayer"/><g class="iciclelayer"/><g class="treemaplayer"/><g class="sunburstlayer"/><g class="glimages"/><defs id="topdefs-8928cf"><g class="clips"/><clipPath id="legend8928cf"><rect width="223" height="82" x="0" y="0"/></clipPath></defs><g class="layer-above"><g class="imagelayer"/><g class="shapelayer"><g class="shape-group" data-index="0" clip-path="url(#clip8928cfxy)"><path data-index="0" fill-rule="evenodd" d="M275.94,404L275.94,126.38" style="opacity: 1; stroke: rgb(31, 119, 180); stroke-opacity: 0.5; fill: rgb(0, 0, 0); fill-opacity: 0; stroke-dasharray: 9px, 9px; stroke-width: 2px;"/></g></g></g><g class="infolayer"><g class="legend" pointer-events="all" transform="translate(464.54,100)"><rect class="bg" shape-rendering="crispEdges" style="stroke: rgb(68, 68, 68); stroke-opacity: 1; fill: rgb(255, 255, 255); fill-opacity: 1; stroke-width: 0px;" width="223" height="82" x="0" y="0"/><g class="scrollbox" transform="" clip-path="url(#legend8928cf)"><g class="groups"><g class="traces" transform="translate(0,16.9)" style="opacity: 1;"><text class="legendtext" text-anchor="start" x="40" y="6.24" style="font-family: 'Open Sans', verdana, arial, sans-serif; font-size: 16px; fill: rgb(68, 68, 68); fill-opacity: 1; white-space: pre;">all_data GMM</text><g class="layers" style="opacity: 1;"><g class="legendfill"/><g class="legendlines"><path class="js-line" d="M5,0h30" style="fill: none; stroke: rgb(31, 119, 180); stroke-opacity: 1; stroke-width: 2px;"/></g><g class="legendsymbols"><g class="legendpoints"/></g></g><rect class="legendtoggle" x="0" y="-11.9" width="217.6875" height="23.8" style="fill: rgb(0, 0, 0); fill-opacity: 0;"/></g><g class="traces" transform="translate(0,40.7)" style="opacity: 1;"><text class="legendtext" text-anchor="start" x="40" y="6.24" style="font-family: 'Open Sans', verdana, arial, sans-serif; font-size: 16px; fill: rgb(68, 68, 68); fill-opacity: 1; white-space: pre;">all_data Component 1</text><g class="layers" style="opacity: 1;"><g class="legendfill"/><g class="legendlines"><path class="js-line" d="M5,0h30" style="fill: none; stroke: rgb(31, 119, 180); stroke-opacity: 1; stroke-dasharray: 9px, 9px; stroke-width: 1px;"/></g><g class="legendsymbols"><g class="legendpoints"/></g></g><rect class="legendtoggle" x="0" y="-11.9" width="217.6875" height="23.8" style="fill: rgb(0, 0, 0); fill-opacity: 0;"/></g><g class="traces" transform="translate(0,64.5)" style="opacity: 1;"><text class="legendtext" text-anchor="start" x="40" y="6.24" style="font-family: 'Open Sans', verdana, arial, sans-serif; font-size: 16px; fill: rgb(68, 68, 68); fill-opacity: 1; white-space: pre;">all_data Component 2</text><g class="layers" style="opacity: 1;"><g class="legendfill"/><g class="legendlines"><path class="js-line" d="M5,0h30" style="fill: none; stroke: rgb(31, 119, 180); stroke-opacity: 1; stroke-dasharray: 3px, 3px; stroke-width: 1px;"/></g><g class="legendsymbols"><g class="legendpoints"/></g></g><rect class="legendtoggle" x="0" y="-11.9" width="217.6875" height="23.8" style="fill: rgb(0, 0, 0); fill-opacity: 0;"/></g></g></g><rect class="scrollbar" rx="20" ry="3" width="0" height="0" style="fill: rgb(128, 139, 164); fill-opacity: 1;" x="0" y="0"/></g><g class="g-gtitle"/><g class="g-xtitle"/><g class="g-ytitle"/><g class="annotation" data-index="0" style="opacity: 1;"><g class="annotation-text-g" transform="rotate(0,275.94,112.5)"><g class="cursor-pointer" transform="translate(196,100)"><rect class="bg" x="0.5" y="0.5" width="158" height="24" style="stroke-width: 1px; stroke: rgb(0, 0, 0); stroke-opacity: 0; fill: rgb(0, 0, 0); fill-opacity: 0;"/><text class="annotation-text" text-anchor="middle" x="79.3203125" y="19" style="font-family: 'Open Sans', verdana, arial, sans-serif; font-size: 17px; fill: rgb(68, 68, 68); fill-opacity: 1; white-space: pre;">Threshold (68.96)</text></g></g></g></g></svg>